<svg xmlns="http://www.w3.org/2000/svg" width="70" height="70">
    <defs>
        <linearGradient id="21345" x1="38.293%" x2="27.461%" y1="100%" y2="11.223%">
            <stop offset="0%" stop-color="#5780F1"/>
            <stop offset="100%" stop-color="#A3BCFF"/>
        </linearGradient>
        <linearGradient id="b" x1="50%" x2="50%" y1="0%" y2="100%">
            <stop offset="0%" stop-color="#575757"/>
            <stop offset="100%" stop-color="#141414"/>
        </linearGradient>
    </defs>
    <g fill="none" fill-rule="evenodd">
        <circle cx="35" cy="35" r="35" fill="url(#21345)"/>
        <path fill="#D8D8D8" stroke="#212121" stroke-linecap="round" stroke-linejoin="round" stroke-width="4"
              d="M34.157 21.417v-4.18"/>
        <path fill="#D8D8D8" stroke="#212121" stroke-linecap="round" stroke-linejoin="round" stroke-width="5"
              d="M47.004 25.572l2.353-2.507"/>
        <path fill="#D8D8D8" stroke="#212121" stroke-linecap="round" stroke-linejoin="round" stroke-width="4"
              d="M30.65 16.488h6.589"/>
        <path fill="#FFF"
              d="M53 38.27C53 48.063 44.94 56 35 56s-18-7.937-18-17.73c0-9.792 8.06-17.73 18-17.73s18 7.938 18 17.73z"/>
        <path stroke="#212121" stroke-linecap="round" stroke-linejoin="round" stroke-width="3.5"
              d="M36.993 36.434l6.82-7.219"/>
        <path fill="url(#b)" d="M22.765 23.565a4.5 4.5 0 1 1-9 0 4.5 4.5 0 0 1 9 0" transform="translate(17 15)"/>
    </g>
</svg>
