<svg xmlns="http://www.w3.org/2000/svg" width="70" height="70">
    <defs>
        <linearGradient id="a-a" x1="38.293%" x2="27.461%" y1="100%" y2="11.223%">
            <stop offset="0%" stop-color="#5780F1"/>
            <stop offset="100%" stop-color="#A3BCFF"/>
        </linearGradient>
        <linearGradient id="b" x1="50%" x2="50%" y1="0%" y2="100%">
            <stop offset="0%" stop-color="#575757"/>
            <stop offset="100%" stop-color="#141414"/>
        </linearGradient>
        <filter id="c" width="166.7%" height="220%" x="-33.3%" y="-60%" filterUnits="objectBoundingBox">
            <feOffset dy="3" in="SourceAlpha" result="shadowOffsetOuter1"/>
            <feGaussianBlur in="shadowOffsetOuter1" result="shadowBlurOuter1" stdDeviation="1.5"/>
            <feColorMatrix in="shadowBlurOuter1" result="shadowMatrixOuter1"
                           values="0 0 0 0 0 0 0 0 0 0 0 0 0 0 0 0 0 0 0.25 0"/>
            <feMerge>
                <feMergeNode in="shadowMatrixOuter1"/>
                <feMergeNode in="SourceGraphic"/>
            </feMerge>
        </filter>
        <linearGradient id="d" x1="50%" x2="50%" y1="0%" y2="100%">
            <stop offset="0%" stop-color="#575757"/>
            <stop offset="100%" stop-color="#141414"/>
        </linearGradient>
    </defs>
    <g fill="none" fill-rule="evenodd">
        <circle cx="35" cy="35" r="35" fill="url(#a-a)"/>
        <path d="M11 11h48v48H11z"/>
        <path fill="url(#b)" fill-rule="nonzero"
              d="M2.823 0h27.414c1.465 0 2.652 1.057 2.652 2.362v15.746c0 1.304-1.187 2.362-2.652 2.362H2.823C1.358 20.47.17 19.412.17 18.108V2.362C.17 1.057 1.358 0 2.823 0z"
              transform="translate(13 20)"/>s
        <path stroke="#FFF" stroke-width="2.394" d="M13 25.905h32.72"/>
        <g filter="url(#c)" transform="translate(20.205 31.333)">
            <path stroke="#53AAF7" stroke-linecap="round" stroke-linejoin="round" stroke-width="2.104"
                  d="M9.939 2.716h7.703"/>
            <g transform="translate(.672 1.299)">
                <rect width="33.662" height="17.714" fill="#FFF" rx="1"/>
                <circle cx="16.623" cy="8.724" r="4" fill="url(#d)"/>
                <path fill="url(#d)"
                      d="M27.419 10.794a1.5 1.5 0 1 1 0-3 1.5 1.5 0 0 1 0 3zm-20.951 0a1.5 1.5 0 1 1 0-3 1.5 1.5 0 0 1 0 3z"/>
            </g>
        </g>
    </g>
</svg>
