<svg xmlns="http://www.w3.org/2000/svg" width="101" height="80">
    <defs>
        <linearGradient id="a" x1="38.293%" x2="27.461%" y1="93.112%" y2="16.564%">
            <stop offset="0%" stop-color="#5780F1"/>
            <stop offset="100%" stop-color="#A3BCFF"/>
        </linearGradient>
        <linearGradient id="b" x1="50%" x2="50%" y1="0%" y2="100%">
            <stop offset="0%" stop-color="#575757"/>
            <stop offset="100%" stop-color="#141414"/>
        </linearGradient>
        <filter id="c" width="172.7%" height="170.6%" x="-36.4%" y="-35.3%" filterUnits="objectBoundingBox">
            <feOffset dy="3" in="SourceAlpha" result="shadowOffsetOuter1"/>
            <feGaussianBlur in="shadowOffsetOuter1" result="shadowBlurOuter1" stdDeviation="1.5"/>
            <feColorMatrix in="shadowBlurOuter1" result="shadowMatrixOuter1"
                           values="0 0 0 0 0 0 0 0 0 0 0 0 0 0 0 0 0 0 0.25 0"/>
            <feMerge>
                <feMergeNode in="shadowMatrixOuter1"/>
                <feMergeNode in="SourceGraphic"/>
            </feMerge>
        </filter>
    </defs>
    <g fill="none" fill-rule="evenodd">
        <path d="M-4-14h105V91H-4z"/>
        <path fill="url(#a)" d="M5 .24h60a5 5 0 0 1 5 5v55a5 5 0 0 1-5 5H5a5 5 0 0 1-5-5v-55a5 5 0 0 1 5-5z"/>
        <path fill="url(#b)"
              d="M8.519 36.308H6.162A6.162 6.162 0 0 1 0 30.146V6.162A6.162 6.162 0 0 1 6.162 0h33.676A6.162 6.162 0 0 1 46 6.162v23.984a6.162 6.162 0 0 1-6.162 6.162H16.933l-6.834 4.866a1 1 0 0 1-1.58-.814v-4.052z"
              transform="translate(42 37.743)"/>
        <path fill="#FFF" fill-rule="nonzero" stroke="#FFF" stroke-linecap="round" stroke-linejoin="round"
              d="M76 51.844c0 7.221-9.939 13.899-11 13.899-1.062 0-11-6.678-11-13.9 0-3.369 2.673-6.1 5.971-6.1 2.112 0 3.967 1.12 5.029 2.809 1.061-1.69 2.917-2.81 5.028-2.81 3.298 0 5.972 2.732 5.972 6.102z"/>
        <path stroke="#FFF" stroke-linecap="round" stroke-linejoin="round" stroke-width="3" d="M7.479 24.134h35.978"/>
        <path stroke="#FFF" stroke-linecap="round" stroke-linejoin="round" stroke-width="3" d="M7.479 32.514h24"
              opacity=".5"/>
        <path stroke="#FFF" stroke-linecap="round" stroke-linejoin="round" stroke-width="3" d="M7.479 40.894h18.557"
              opacity=".2"/>
        <path fill="#212121" d="M10.11 7.486a2.5 2.5 0 1 1-5 0 2.5 2.5 0 0 1 5 0"/>
        <path fill="#FFF"
              d="M17.219 7.486a2.5 2.5 0 1 1-5 0 2.5 2.5 0 0 1 5 0m7.109 0a2.5 2.5 0 1 1-5 0 2.5 2.5 0 0 1 5 0"/>
        <g filter="url(#c)" transform="translate(65 10)">
            <path fill="#FFF"
                  d="M16.452 33.3C7.38 33.3 0 25.832 0 16.65 0 7.47 7.38 0 16.452 0c9.071 0 16.45 7.469 16.45 16.65 0 9.182-7.379 16.65-16.45 16.65z"/>
            <path stroke="#212121" stroke-linecap="round" stroke-linejoin="round" stroke-width="3"
                  d="M23.406 21.94c-1.1 2.818-3.818 4.816-6.989 4.816-3.106 0-5.778-1.918-6.92-4.645"/>
            <path fill="#212121"
                  d="M12.701 13.297c0 1.295-1.037 2.345-2.317 2.345-1.28 0-2.318-1.05-2.318-2.345 0-1.295 1.037-2.346 2.318-2.346 1.28 0 2.317 1.05 2.317 2.346m12.063.015c0 1.304-1.044 2.361-2.333 2.361-1.289 0-2.333-1.057-2.333-2.36 0-1.304 1.044-2.362 2.333-2.362 1.289 0 2.333 1.058 2.333 2.361"/>
        </g>
    </g>
</svg>
