<svg xmlns="http://www.w3.org/2000/svg" width="70" height="70">
    <defs>
        <linearGradient id="a" x1="38.293%" x2="27.461%" y1="100%" y2="11.223%">
            <stop offset="0%" stop-color="#5780F1"/>
            <stop offset="100%" stop-color="#A3BCFF"/>
        </linearGradient>
        <filter id="b" width="166.7%" height="166.7%" x="-33.3%" y="-33.3%" filterUnits="objectBoundingBox">
            <feOffset dy="2" in="SourceAlpha" result="shadowOffsetOuter1"/>
            <feGaussianBlur in="shadowOffsetOuter1" result="shadowBlurOuter1" stdDeviation="3"/>
            <feColorMatrix in="shadowBlurOuter1" result="shadowMatrixOuter1"
                           values="0 0 0 0 0 0 0 0 0 0 0 0 0 0 0 0 0 0 0.2 0"/>
            <feMerge>
                <feMergeNode in="shadowMatrixOuter1"/>
                <feMergeNode in="SourceGraphic"/>
            </feMerge>
        </filter>
        <linearGradient id="c" x1="50%" x2="50%" y1="0%" y2="100%">
            <stop offset="0%" stop-color="#575757"/>
            <stop offset="100%" stop-color="#141414"/>
        </linearGradient>
        <linearGradient id="d" x1="50%" x2="50%" y1="0%" y2="100%">
            <stop offset="0%" stop-color="#575757"/>
            <stop offset="100%" stop-color="#141414"/>
        </linearGradient>
    </defs>
    <g fill="none" fill-rule="evenodd">
        <circle cx="35" cy="35" r="35" fill="url(#a)"/>
        <g filter="url(#b)" transform="translate(11 11)">
            <path fill="#FFF"
                  d="M43 24c0 10.493-8.507 18.999-19 18.999s-19-8.506-19-19C5 13.506 13.507 5 24 5s19 8.506 19 19z"/>
            <path fill="url(#c)"
                  d="M21.335 4.848a2.299 2.299 0 1 1-4.6 0 2.3 2.3 0 1 1 4.6 0m0 28.373a2.299 2.299 0 1 1-4.6 0 2.3 2.3 0 1 1 4.6 0m11.828-11.886a2.3 2.3 0 1 1 0-4.6 2.3 2.3 0 0 1 0 4.6zm-25.957-2.3a2.299 2.299 0 1 1-4.6 0 2.3 2.3 0 1 1 4.6 0"
                  transform="translate(5 5)"/>
            <path stroke="url(#d)" stroke-linecap="round" stroke-linejoin="round" stroke-width="3.5"
                  d="M14.186 16.646l5.523 4.71 8.948-9.053" transform="translate(5 5)"/>
        </g>
    </g>
</svg>
