<svg xmlns="http://www.w3.org/2000/svg" width="70" height="70">
    <defs>
        <linearGradient id="a" x1="38.293%" x2="27.461%" y1="100%" y2="11.223%">
            <stop offset="0%" stop-color="#5780F1"/>
            <stop offset="100%" stop-color="#A3BCFF"/>
        </linearGradient>
        <filter id="b" width="166.7%" height="166.7%" x="-33.3%" y="-33.3%" filterUnits="objectBoundingBox">
            <feOffset dy="2" in="SourceAlpha" result="shadowOffsetOuter1"/>
            <feGaussianBlur in="shadowOffsetOuter1" result="shadowBlurOuter1" stdDeviation="3"/>
            <feColorMatrix in="shadowBlurOuter1" result="shadowMatrixOuter1"
                           values="0 0 0 0 0 0 0 0 0 0 0 0 0 0 0 0 0 0 0.2 0"/>
            <feMerge>
                <feMergeNode in="shadowMatrixOuter1"/>
                <feMergeNode in="SourceGraphic"/>
            </feMerge>
        </filter>
        <linearGradient id="c" x1="50%" x2="50%" y1="0%" y2="100%">
            <stop offset="0%" stop-color="#575757"/>
            <stop offset="100%" stop-color="#141414"/>
        </linearGradient>
    </defs>
    <g fill="none" fill-rule="evenodd">
        <circle cx="35" cy="35" r="35" fill="url(#a)"/>
        <g filter="url(#b)" transform="translate(11 11)">
            <path fill="#FFF"
                  d="M10.35 36.194H8.844A3.844 3.844 0 0 1 5 32.349V14.844A3.844 3.844 0 0 1 8.844 11h28.447a3.844 3.844 0 0 1 3.844 3.844V32.35a3.844 3.844 0 0 1-3.844 3.845H17.52l-6.252 5.175a.56.56 0 0 1-.918-.432v-4.743z"/>
            <path stroke="url(#c)" stroke-linecap="round" stroke-linejoin="round" stroke-width="3.7"
                  d="M11.532 13.302l4.914 4.806L25.37 8.66" transform="translate(5 11)"/>
        </g>
    </g>
</svg>
