<svg xmlns="http://www.w3.org/2000/svg" width="23" height="18" viewBox="0 0 23 18">
    <path fill="#212121" fill-rule="nonzero" d="M14.583 4.861h5.25a1 1 0 0 1 1 1v10.111h1.39v1.39h-7.64v-12.5zm-1.389 0v12.5H0v-1.389h1.389V1a1 1 0 0 1 1-1h9.805a1 1 0 0 1 1 1v3.861zM3.472 6.944v2.778H6.25V6.944H3.472zm0 4.862v2.777H6.25v-2.777H3.472zm4.861-4.862v2.778h2.778V6.944H8.333zm0-4.86V4.86h2.778V2.083H8.333zm6.25 4.86v2.778h4.167V6.944h-4.167zm0 4.862v2.777h4.167v-2.777h-4.167zm-6.25 0v2.777h2.778v-2.777H8.333zm-4.86-9.723v2.778H6.25V2.083H3.472z"/>
</svg>
