<svg xmlns="http://www.w3.org/2000/svg" width="32" height="32" viewBox="0 0 32 32">
    <g fill="none" fill-rule="nonzero">
        <path fill="#4C75A3" d="M0 32h32V0H0z"/>
        <path fill="#FFF" d="M22.71 16.42c-.65-.703-1.516-1.168-2.596-1.395v-.094a3.78 3.78 0 0 0 1.77-1.47c.425-.665.64-1.426.64-2.28 0-.738-.156-1.388-.465-1.953-.31-.564-.78-1.015-1.406-1.352a5.6 5.6 0 0 0-1.863-.618c-.66-.098-1.635-.147-2.92-.147H9.687v17.512h7.006c1.214 0 2.216-.11 3.003-.33a6.193 6.193 0 0 0 2.17-1.105c.555-.43.998-.976 1.327-1.635.33-.66.494-1.423.494-2.293 0-1.193-.326-2.14-.976-2.84h-.001zm-4.854-3.347c-.133.29-.376.517-.728.682-.322.15-.633.23-.935.246-.3.017-.828.026-1.58.026h-.553V10.32h.305c.784 0 1.374.007 1.77.02.395.01.74.08 1.028.204.306.134.53.35.676.647.143.3.216.59.216.872 0 .384-.066.72-.2 1.01h.001zm1.03 7.24c-.185.332-.477.585-.876.757a3.721 3.721 0 0 1-1.34.318c-.44.015-1.23.023-2.375.023h-.235v-4.386h.81c.784 0 1.41.006 1.876.018.466.012.832.07 1.1.17.438.157.766.39.986.695.22.305.33.73.33 1.27 0 .423-.093.8-.277 1.135h.001z"/>
    </g>
</svg>
