<svg xmlns="http://www.w3.org/2000/svg" width="19" height="18" viewBox="0 0 19 18">
    <path fill="#212121" fill-rule="evenodd" d="M17.1 3.79h-2.071a2.84 2.84 0 0 0 .171-.948A2.842 2.842 0 0 0 12.35 0c-.998 0-1.862.512-2.375 1.279l-.475.635-.475-.645A2.863 2.863 0 0 0 6.65 0 2.842 2.842 0 0 0 3.8 2.842c0 .332.067.654.171.947H1.9C.846 3.79.01 4.633.01 5.684L0 16.105A1.89 1.89 0 0 0 1.9 18h15.2a1.89 1.89 0 0 0 1.9-1.895V5.685a1.89 1.89 0 0 0-1.9-1.896zm-4.75-1.895c.523 0 .95.426.95.947a.951.951 0 0 1-.95.947.951.951 0 0 1-.95-.947c0-.52.428-.947.95-.947zm-5.7 0c.522 0 .95.426.95.947a.951.951 0 0 1-.95.947.951.951 0 0 1-.95-.947c0-.52.427-.947.95-.947zm10.45 14.21H1.9v-1.894h15.2v1.894zm0-4.737H1.9V5.684h4.826L4.75 8.365l1.539 1.109 2.261-3.07.95-1.288.95 1.288 2.261 3.07 1.539-1.109-1.976-2.68H17.1v5.683z"/>
</svg>
