<svg xmlns="http://www.w3.org/2000/svg" width="17" height="22" viewBox="0 0 17 22">
    <path fill="#212121" fill-rule="evenodd" d="M11.278 15.361c0-.768.62-1.389 1.389-1.389.768 0 1.389.62 1.389 1.39 0 .768-.62 1.388-1.39 1.388-.768 0-1.388-.62-1.388-1.389zM2.25 9.401c2.083 2.121 4.167 3.182 6.25 3.182s4.167-1.06 6.25-3.183V7.49c0-1.13-.833-2.088-1.953-2.245a30.947 30.947 0 0 0-8.594 0A2.267 2.267 0 0 0 2.25 7.491zm.694 5.96c0-.768.62-1.389 1.39-1.389.768 0 1.388.62 1.388 1.39 0 .768-.62 1.388-1.389 1.388-.768 0-1.389-.62-1.389-1.389zm10.302 4.316c-1.365.785-3.011 1.24-4.746 1.24-1.733 0-3.378-.454-4.741-1.237l-.868 1.446a1 1 0 0 1-.857.485h-.475a.59.59 0 0 1-.506-.893l1.256-2.093C.988 17.418.167 15.817.167 14.032V5.888c0-3.256 4.466-5.11 8.239-5.11 4.168 0 8.427 1.854 8.427 5.11v8.144c0 1.784-.82 3.383-2.138 4.59l.002.002 1.256 2.094a.59.59 0 0 1-.506.893h-.475a1 1 0 0 1-.857-.485l-.87-1.45zM8.5 1.472a1.389 1.389 0 1 0 0 2.778 1.389 1.389 0 0 0 0-2.778z"/>
</svg>
