<svg xmlns="http://www.w3.org/2000/svg" xmlns:xlink="http://www.w3.org/1999/xlink" width="100" height="101"><defs><filter id="a" width="169%" height="156.8%" x="-32.4%" y="-28.4%" filterUnits="objectBoundingBox"><feOffset dy="2" in="SourceAlpha" result="shadowOffsetOuter1"/><feGaussianBlur in="shadowOffsetOuter1" result="shadowBlurOuter1" stdDeviation="5"/><feColorMatrix in="shadowBlurOuter1" result="shadowMatrixOuter1" values="0 0 0 0 0 0 0 0 0 0 0 0 0 0 0 0 0 0 0.15 0"/><feMerge><feMergeNode in="shadowMatrixOuter1"/><feMergeNode in="SourceGraphic"/></feMerge></filter><linearGradient id="b" x1="43.035%" x2="36.59%" y1="100%" y2="11.223%"><stop offset="0%" stop-color="#5780F1"/><stop offset="100%" stop-color="#A3BCFF"/></linearGradient><rect id="d" width="10" height="14" x="34.545" y="58.11" rx="3"/><filter id="c" width="220%" height="185.7%" x="-60%" y="-21.4%" filterUnits="objectBoundingBox"><feOffset dy="3" in="SourceAlpha" result="shadowOffsetOuter1"/><feGaussianBlur in="shadowOffsetOuter1" result="shadowBlurOuter1" stdDeviation="1.5"/><feColorMatrix in="shadowBlurOuter1" values="0 0 0 0 0 0 0 0 0 0 0 0 0 0 0 0 0 0 0.25 0"/></filter><rect id="f" width="10" height="26" x="47.43" y="46.11" rx="3"/><filter id="e" width="220%" height="146.2%" x="-60%" y="-11.5%" filterUnits="objectBoundingBox"><feOffset dy="3" in="SourceAlpha" result="shadowOffsetOuter1"/><feGaussianBlur in="shadowOffsetOuter1" result="shadowBlurOuter1" stdDeviation="1.5"/><feColorMatrix in="shadowBlurOuter1" values="0 0 0 0 0 0 0 0 0 0 0 0 0 0 0 0 0 0 0.25 0"/></filter><rect id="h" width="10" height="38.524" x="60.314" y="33.585" rx="3"/><filter id="g" width="220%" height="131.1%" x="-60%" y="-7.8%" filterUnits="objectBoundingBox"><feOffset dy="3" in="SourceAlpha" result="shadowOffsetOuter1"/><feGaussianBlur in="shadowOffsetOuter1" result="shadowBlurOuter1" stdDeviation="1.5"/><feColorMatrix in="shadowBlurOuter1" values="0 0 0 0 0 0 0 0 0 0 0 0 0 0 0 0 0 0 0.25 0"/></filter><linearGradient id="i" x1="6.22%" x2="29.485%" y1="-10.345%" y2="-10.345%"><stop offset="0%" stop-color="#FFF" stop-opacity="0"/><stop offset="100%" stop-color="#FFF"/></linearGradient><linearGradient id="j" x1="50%" x2="50%" y1="0%" y2="100%"><stop offset="0%" stop-color="#575757"/><stop offset="100%" stop-color="#141414"/></linearGradient></defs><g fill="none" fill-rule="evenodd"><path d="M-3-4h105v105H-3z"/><g transform="translate(0 8)"><g filter="url(#a)" transform="translate(19)"><path fill="url(#b)" d="M5 0h43.3l14.18 13.565V76a5 5 0 0 1-5 5H5a5 5 0 0 1-5-5V5a5 5 0 0 1 5-5z" transform="matrix(-1 0 0 1 63.29 0)"/><path fill="#7396F6" d="M.81 13.565h9.074a5 5 0 0 0 5-5V0L.81 13.565z"/><use fill="#000" filter="url(#c)" xlink:href="#d"/><use fill="#FFF" xlink:href="#d"/><use fill="#000" filter="url(#e)" xlink:href="#f"/><use fill="#FFF" xlink:href="#f"/><use fill="#000" filter="url(#g)" xlink:href="#h"/><use fill="#FFF" xlink:href="#h"/><g stroke-linejoin="round" stroke-width="3"><path stroke="url(#i)" d="M.485 9.952c6.196-7.137 12.591-7.636 19.187-1.5 6.596 6.137 12.991 4.824 19.187-3.94" transform="rotate(-10 143.366 -40.034)"/><path stroke="#FFF" stroke-linecap="round" d="M42.666 22.832l6.143-2.599 1.994 6.447"/></g></g><path fill="#FFF" fill-rule="nonzero" stroke="#FFF" stroke-width="2" d="M15.749 47.209h-2.224a.708.708 0 0 0-.64.72c.02.356.36.662.716.643h2.148v3.498h-2.224a.708.708 0 0 0-.64.719c.02.356.36.663.716.643h2.148v4.147c-.01.364.316.701.677.701a.707.707 0 0 0 .678-.7v-4.148h4.555c.361.01.697-.318.697-.681 0-.364-.336-.692-.697-.681h-4.555v-3.498c1.755 0 4.767.04 6.51 0 3.483-.082 6.231-3.117 6.136-6.68-.093-3.473-2.85-6.256-6.21-6.314-1.918-.033-5.104-.007-7.038-.007-.511 0-.753.388-.753.776v10.862zm7.528-10.27c2.775-.043 5.041 2.153 5.117 4.992.076 2.824-2.065 5.19-4.825 5.268-1.727.048-4.722.011-6.465.011V36.934c1.62 0 4.602.028 6.173.005z"/><ellipse cx="20.826" cy="49.427" fill="url(#j)" rx="20.826" ry="20.744"/><path fill="#FFF" fill-rule="nonzero" stroke="#FFF" stroke-width="2" d="M15.749 50.209h-2.224a.708.708 0 0 0-.64.72c.02.356.36.662.716.643h2.148v3.498h-2.224a.708.708 0 0 0-.64.719c.02.356.36.663.716.643h2.148v4.147c-.01.364.316.701.677.701a.707.707 0 0 0 .678-.7v-4.148h4.555c.361.01.697-.318.697-.681 0-.364-.336-.692-.697-.681h-4.555v-3.498c1.755 0 4.767.04 6.51 0 3.483-.082 6.231-3.117 6.136-6.68-.093-3.473-2.85-6.256-6.21-6.314-1.918-.033-5.104-.007-7.038-.007-.511 0-.753.388-.753.776v10.862zm7.528-10.27c2.775-.043 5.041 2.153 5.117 4.992.076 2.824-2.065 5.19-4.825 5.268-1.727.048-4.722.011-6.465.011V39.934c1.62 0 4.602.028 6.173.005z"/></g></g></svg>
