<svg xmlns="http://www.w3.org/2000/svg" xmlns:xlink="http://www.w3.org/1999/xlink" width="70" height="70">
    <defs>
        <linearGradient id="123" x1="38.293%" x2="27.461%" y1="100%" y2="11.223%">
            <stop offset="0%" stop-color="#5780F1"/>
            <stop offset="100%" stop-color="#A3BCFF"/>
        </linearGradient>
        <path id="c"
              d="M.652 34.191c.424.495 1.124.603 1.95.603h17.517c2.157 0 3.91-1.54 3.91-3.432 0-.447-.096-.88-.285-1.284 1.671-.39 2.907-1.73 2.907-3.32a3.09 3.09 0 0 0-.45-1.589c1.12-.621 1.829-1.712 1.829-2.899 0-.986-.475-1.898-1.285-2.54.81-.64 1.285-1.553 1.285-2.539 0-1.893-1.753-3.432-3.913-3.432l-10.302.218c.252-3.973.024-7.761-.683-11.364-.626-1.7-1.602-2.55-2.928-2.55-2.357 0-2.434 3.804-2.684 5.054C7.087 7.277 5.238 15.712.413 17.72.289 28.37.369 33.861.652 34.19z"/>
        <filter id="b" width="143.4%" height="134.6%" x="-21.7%" y="-8.6%" filterUnits="objectBoundingBox">
            <feOffset dy="3" in="SourceAlpha" result="shadowOffsetOuter1"/>
            <feGaussianBlur in="shadowOffsetOuter1" result="shadowBlurOuter1" stdDeviation="1.5"/>
            <feColorMatrix in="shadowBlurOuter1" values="0 0 0 0 0 0 0 0 0 0 0 0 0 0 0 0 0 0 0.25 0"/>
        </filter>
        <linearGradient id="d" x1="50%" x2="50%" y1="0%" y2="100%">
            <stop offset="0%" stop-color="#575757"/>
            <stop offset="100%" stop-color="#141414"/>
        </linearGradient>
    </defs>
    <g fill="none" fill-rule="evenodd">
        <circle cx="35" cy="35" r="35" fill="url(#123)"/>
        <path d="M11 11h48v48H11z"/>
        <g transform="translate(15 15)">
            <g transform="translate(11.846)">
                <use fill="#000" filter="url(#b)" xlink:href="#c"/>
                <use fill="#FFF" xlink:href="#c"/>
            </g>
            <rect width="13.327" height="22.387" y="14.52" fill="url(#d)" rx="3.305"/>
            <path fill="#FFF" d="M5.202 34.19a2.5 2.5 0 1 1 0-4.999 2.5 2.5 0 0 1 0 5z"/>
        </g>
    </g>
</svg>
