<svg xmlns="http://www.w3.org/2000/svg" width="24" height="24" viewBox="0 0 24 24" fill="#212121">
    <path fill-rule="evenodd" d="M12 3v-.75c5.382 0 9.75 4.368 9.75 9.75s-4.368 9.75-9.75 9.75S2.25 17.382 2.25 12 6.618 2.25 12 2.25V3zm0 0v.75A8.253 8.253 0 0 0 3.75 12 8.253 8.253 0 0 0 12 20.25 8.253 8.253 0 0 0 20.25 12 8.253 8.253 0 0 0 12 3.75V3zM6.6 15.582C6.627 13.791 10.001 13 12 13c1.999 0 5.373.791 5.4 2.582a6.48 6.48 0 0 1-10.8 0zM14.5 8.5c0 1.383-1.117 2.5-2.5 2.5a2.497 2.497 0 0 1-2.5-2.5C9.5 7.117 10.617 6 12 6s2.5 1.117 2.5 2.5z"></path>
</svg>
