<svg xmlns="http://www.w3.org/2000/svg" width="88" height="82">
    <defs>
        <linearGradient id="a" x1="47.014%" x2="44.251%" y1="100%" y2="11.223%">
            <stop offset="0%" stop-color="#5780F1"/>
            <stop offset="100%" stop-color="#A3BCFF"/>
        </linearGradient>
        <linearGradient id="b" x1="50%" x2="50%" y1="0%" y2="100%">
            <stop offset="0%" stop-color="#575757"/>
            <stop offset="100%" stop-color="#141414"/>
        </linearGradient>
        <filter id="c" width="151.1%" height="155.8%" x="-25.5%" y="-27.9%" filterUnits="objectBoundingBox">
            <feOffset dy="3" in="SourceAlpha" result="shadowOffsetOuter1"/>
            <feGaussianBlur in="shadowOffsetOuter1" result="shadowBlurOuter1" stdDeviation="1.5"/>
            <feColorMatrix in="shadowBlurOuter1" result="shadowMatrixOuter1"
                           values="0 0 0 0 0 0 0 0 0 0 0 0 0 0 0 0 0 0 0.25 0"/>
            <feMerge>
                <feMergeNode in="shadowMatrixOuter1"/>
                <feMergeNode in="SourceGraphic"/>
            </feMerge>
        </filter>
        <linearGradient id="d" x1="50%" x2="50%" y1="0%" y2="100%">
            <stop offset="0%" stop-color="#575757"/>
            <stop offset="100%" stop-color="#141414"/>
        </linearGradient>
    </defs>
    <g fill="none" fill-rule="evenodd">
        <path d="M-7-12H98V93H-7z"/>
        <path fill="url(#a)"
              d="M40.914 23.898c-.005-1.49-.009-2.653-.01-3.489a24.343 24.343 0 0 0-.236-3.307C39.168 6.327 28.76-1.358 17.813.202 7.62 1.653.183 10.638.258 19.891c.01 2.326 1.697 4.536 4.075 4.54 2.38.005 4.028-1.88 4.387-4.235.714-4.676 2.438-8.015 6.503-10.082 4.268-2.17 8.557-1.85 12.39 1.045 6.639 5.012 5.701 14.513-.454 18.339-1.447.899-2.96 1.746-4.545 2.364-3.055 1.192-6.18 2.21-9.279 3.29-2.791.972-5.552 2.01-8.066 3.585C1.907 40.845.21 43.783.235 47.804.278 54.326.2 63.701 0 75.931a5 5 0 0 0 5.004 5.081l30.597-.03a5 5 0 0 0 4.995-4.97l.317-52.114z"/>
        <path fill="#FFF"
              d="M24.498 53.889l7.02 1.02c.679.099.948.94.457 1.425l-5.089 5.011 1.19 7.064c.114.683-.596 1.204-1.202.883l-6.276-3.327-6.286 3.346c-.607.323-1.316-.197-1.198-.88l1.21-7.067-5.074-4.996c-.49-.483-.218-1.326.46-1.427l7.024-1.04 3.15-6.434a.823.823 0 0 1 1.483-.002l3.131 6.424z"/>
        <g transform="translate(34.071 54.519)">
            <rect width="53.245" height="20.045" fill="url(#b)" rx="9.957"/>
            <rect width="20.862" height="13.364" x="28.222" y="3.107" fill="#FFF" rx="6.682"/>
        </g>
        <path d="M31 3h61v61H31z"/>
        <g filter="url(#c)" transform="translate(36 8)">
            <path fill="#FFF"
                  d="M13.491 39.276c.492.568 2.303.692 3.26.692h20.313c2.5 0 4.534-1.768 4.534-3.942 0-.514-.112-1.011-.331-1.475 1.937-.449 3.37-1.987 3.37-3.813 0-.638-.182-1.265-.52-1.826 1.297-.714 2.12-1.967 2.12-3.33 0-1.132-.552-2.18-1.49-2.918.938-.736 1.49-1.784 1.49-2.916 0-2.175-2.034-3.943-4.538-3.943l-11.945.251c.292-4.564.028-8.916-.792-13.054-.726-1.953-1.858-2.93-3.395-2.93-2.733 0-2.823 4.37-3.113 5.806-.501 2.482-2.645 12.17-8.24 14.479-.81 12.234-1.05 18.54-.723 18.919z"/>
            <rect width="15.452" height="25.716" y="16.679" fill="url(#d)" rx="5"/>
            <path fill="#FFF" d="M5.792 39.324a2.5 2.5 0 1 1 0-5 2.5 2.5 0 0 1 0 5z"/>
        </g>
    </g>
</svg>
