<svg xmlns="http://www.w3.org/2000/svg" width="160" height="113"><defs><linearGradient id="a" x1="50%" x2="50%" y1="0%" y2="100%"><stop offset="0%" stop-color="#575757"/><stop offset="100%" stop-color="#141414"/></linearGradient><filter id="b" width="136.4%" height="156.1%" x="-18.2%" y="-28.1%" filterUnits="objectBoundingBox"><feOffset dy="3" in="SourceAlpha" result="shadowOffsetOuter1"/><feGaussianBlur in="shadowOffsetOuter1" result="shadowBlurOuter1" stdDeviation="2.5"/><feColorMatrix in="shadowBlurOuter1" result="shadowMatrixOuter1" values="0 0 0 0 0 0 0 0 0 0 0 0 0 0 0 0 0 0 0.25 0"/><feMerge><feMergeNode in="shadowMatrixOuter1"/><feMergeNode in="SourceGraphic"/></feMerge></filter><linearGradient id="c" x1="50%" x2="50%" y1="0%" y2="100%"><stop offset="0%" stop-color="#575757"/><stop offset="100%" stop-color="#141414"/></linearGradient><linearGradient id="d" x1="78.101%" x2="78.101%" y1="21.793%" y2="90.889%"><stop offset="0%" stop-color="#5780F1"/><stop offset="100%" stop-color="#A3BCFF"/></linearGradient><linearGradient id="e" x1="0%" x2="65.568%" y1="91.306%" y2="27.86%"><stop offset="0%" stop-color="#FFF"/><stop offset="100%" stop-color="#212121"/></linearGradient></defs><g fill="none" fill-rule="evenodd"><path fill="url(#a)" fill-rule="nonzero" d="M34.608.132L.798 15.87c-1.03.474-1.07 1.923-.077 2.463l5.902 3.2c-.013.013 0 .013 0 .027l5.224 13.17a1.304 1.304 0 0 0 2.22.356l5.419-6.559 10.212 5.545c.797.452 1.881-.029 2.024-1.001l4.832-31.478C36.718.488 35.59-.331 34.608.132z" transform="scale(-1 1) rotate(30 -34.153 -229.147)"/><path fill="#FFF" stroke="#FFF" stroke-linecap="round" stroke-linejoin="round" stroke-width="2" d="M101.796 8.054L121.317 11l.88 6.729-3.211-3.366z"/><g filter="url(#b)" transform="translate(5 25.294)"><path fill="#FFF" d="M16 43.755v11.029a1.5 1.5 0 0 0 2.372 1.22l15.758-11.25h31.816c12.118 0 22.035-10.004 22.035-22.24 0-12.231-9.917-22.24-22.035-22.24H22.52C10.398.274.481 10.283.481 22.514c0 9.947 6.554 18.42 15.519 21.241z"/><path fill="url(#c)" d="M29.774 23.015c0 3.035-2.439 5.503-5.46 5.503-3.014 0-5.458-2.468-5.458-5.503 0-3.036 2.444-5.497 5.459-5.497 3.02 0 5.459 2.46 5.459 5.497m18.83-.018c0 3.036-2.439 5.503-5.46 5.503-3.014 0-5.458-2.467-5.458-5.503S40.13 17.5 43.145 17.5c3.02 0 5.459 2.461 5.459 5.497m20.346 0c0 3.036-2.438 5.503-5.459 5.503-3.014 0-5.458-2.467-5.458-5.503S60.477 17.5 63.49 17.5c3.021 0 5.46 2.461 5.46 5.497" transform="matrix(-1 0 0 1 88 0)"/></g><path fill="url(#d)" d="M111.137 90.741c-.208-4.84 3.876-8.86 12.253-12.058a2 2 0 0 0 1.254-2.226l-.694-3.815a2 2 0 0 0-2.254-1.621c-1.364.197-2.433.378-3.207.542-19.185 4.081-31.57 19.252-29.199 37.37 2.68 13.72 13.81 18.989 23.908 17.597 10.203-1.59 17.21-10.737 15.562-20.578-1.34-8.749-8.863-14.912-17.623-15.21z" transform="rotate(180 111.5 91.873)"/><path fill="url(#d)" d="M65.137 90.741c-.208-4.84 3.876-8.86 12.253-12.058a2 2 0 0 0 1.254-2.226l-.694-3.815a2 2 0 0 0-2.254-1.621c-1.364.197-2.433.378-3.207.542-19.185 4.081-31.57 19.252-29.199 37.37 2.68 13.72 13.81 18.989 23.908 17.597 10.203-1.59 17.21-10.737 15.562-20.578-1.34-8.749-8.863-14.912-17.623-15.21z" transform="rotate(180 65.5 91.873)"/><path stroke="url(#e)" stroke-dasharray="0,10" stroke-linecap="round" stroke-linejoin="round" stroke-width="4" d="M157.034 47.289c-17.707 6.763-28.291 17.321-31.752 31.673" transform="scale(-1 1) rotate(-13 -63.938 1316.993)"/></g></svg>
