<svg xmlns="http://www.w3.org/2000/svg" xmlns:xlink="http://www.w3.org/1999/xlink" width="58" height="58"><defs><path id="a" d="M0 57.658h57.661V0H0z"/></defs><g fill="none" fill-rule="evenodd" transform="translate(.281 .281)"><path fill="#000" d="M4.806 12.01h48.049a4.806 4.806 0 0 1 4.806 4.807v36.035a4.806 4.806 0 0 1-4.806 4.806H4.806A4.806 4.806 0 0 1 0 52.852V16.817a4.806 4.806 0 0 1 4.806-4.806"/><path fill="#000" d="M28.83 26.207c-7.236 0-13.103-5.867-13.103-13.104C15.727 5.867 21.594 0 28.831 0c7.236 0 13.103 5.867 13.103 13.103 0 7.237-5.867 13.104-13.103 13.104zm0-6.989a6.115 6.115 0 1 0 .006-12.23 6.115 6.115 0 0 0-.008 12.23h.003z"/><path fill="#FFF" d="M38.82 10.209c-1.598-5.517-7.365-8.693-12.882-7.095a10.399 10.399 0 0 0-7.345 8.17.787.787 0 0 0 1.548.274 8.825 8.825 0 0 1 17.376-.029.787.787 0 1 0 1.548-.288 10.383 10.383 0 0 0-.245-1.032M10.529 34.677v19.386H6.977V34.677H3.2v-3.206h11.137v3.206zm11.535 0h-2.191v6.92h2.188c1.903 0 2.188-1.586 2.188-3.46 0-1.874-.288-3.46-2.188-3.46h.003zm2.76 19.389l-2.95-9.266h-2.001v9.266H16.32V31.47h5.711c4.126 0 5.766 1.998 5.766 6.663 0 2.794-.576 4.792-2.632 5.902l3.376 10.03h-3.719z"/><mask id="b" fill="#fff"><use xlink:href="#a"/></mask><path fill="#FFF" d="M30.707 54.063h3.552V31.471h-3.552zM42.92 34.677h-2.188v7.36h2.188c1.903 0 2.188-1.68 2.188-3.68 0-2.002-.288-3.683-2.188-3.683v.003zm-.063 10.567h-2.125v8.822h-3.555V31.47h5.68c4.093 0 5.806 2.125 5.806 6.853 0 4.57-1.522 6.92-5.806 6.92zm8.268 2.482h3.365V31.48h-3.365v16.246zm1.681 6.472a2.208 2.208 0 0 1-2.22-2.196v-.023a2.223 2.223 0 1 1 4.443 0 2.208 2.208 0 0 1-2.197 2.22h-.026zM6.98 17.993a.983.983 0 0 0-.9-.45.954.954 0 0 0-.89.45c-.35.577-.416 1.765-.416 3.93s.075 3.361.415 3.926a.954.954 0 0 0 .883.45.983.983 0 0 0 .9-.45c.348-.576.4-1.764.4-3.93 0-2.164-.05-3.36-.4-3.929l.008.003zm1.398 8.99a2.832 2.832 0 0 1-2.306.997 2.828 2.828 0 0 1-2.307-.998c-.882-.997-.865-2.73-.865-5.06 0-2.329-.017-4.062.865-5.059a2.828 2.828 0 0 1 2.307-.998 2.832 2.832 0 0 1 2.306.998c.882 1 .865 2.73.865 5.06 0 2.33.017 4.062-.865 5.06zm7.361.864l-2.797-7.04v7.04h-1.865V15.995h1.666l2.78 7.04v-7.04h1.865v11.852zm3.655 0V15.995h4.982v1.681H21.26v3.362h2.684v1.683H21.26v3.446h3.116v1.68zM32.65 17.676v10.171h-1.865V17.676h-1.98v-1.68h5.844v1.68zm12.597 10.171h-1.95L41.6 18.841l-1.681 9.006h-1.95l-2.245-11.852h2.047l1.165 8.99 1.631-8.99h2.065l1.649 8.99 1.147-8.99h2.047zm7.245-9.854a.983.983 0 0 0-.885-.45.954.954 0 0 0-.883.45c-.348.577-.415 1.765-.415 3.93s.067 3.361.415 3.93a.955.955 0 0 0 .883.446.983.983 0 0 0 .9-.45c.348-.576.4-1.764.4-3.93 0-2.164-.05-3.36-.4-3.929l-.015.003zm1.398 8.99a3.14 3.14 0 0 1-4.596 0c-.882-.998-.865-2.73-.865-5.06 0-2.33-.017-4.063.865-5.06a3.142 3.142 0 0 1 4.596 0c.882.997.865 2.73.865 5.06 0 2.33.017 4.062-.865 5.06zM36.099 10.601l2.773 2.825 1.07-3.82z" mask="url(#b)"/></g></svg>
