<svg xmlns="http://www.w3.org/2000/svg" xmlns:xlink="http://www.w3.org/1999/xlink"><defs>
        <rect id="b" width="40" height="40" rx="20"/>
        <filter id="a" width="165%" height="165%" x="-32.5%" y="-20%" filterUnits="objectBoundingBox">
            <feOffset dy="5" in="SourceAlpha" result="shadowOffsetOuter1"/>
            <feGaussianBlur in="shadowOffsetOuter1" result="shadowBlurOuter1" stdDeviation="3.5"/>
            <feColorMatrix in="shadowBlurOuter1" values="0 0 0 0 0 0 0 0 0 0 0 0 0 0 0 0 0 0 0.15 0"/>
        </filter>
    
        <linearGradient id="21345" x1="38.293%" x2="27.461%" y1="100%" y2="11.223%">
            <stop offset="0%" stop-color="#5780F1"/>
            <stop offset="100%" stop-color="#A3BCFF"/>
        </linearGradient>
        <linearGradient id="b" x1="50%" x2="50%" y1="0%" y2="100%">
            <stop offset="0%" stop-color="#575757"/>
            <stop offset="100%" stop-color="#141414"/>
        </linearGradient>
    
        <linearGradient id="a-a" x1="38.293%" x2="27.461%" y1="100%" y2="11.223%">
            <stop offset="0%" stop-color="#5780F1"/>
            <stop offset="100%" stop-color="#A3BCFF"/>
        </linearGradient>
        <linearGradient id="b" x1="50%" x2="50%" y1="0%" y2="100%">
            <stop offset="0%" stop-color="#575757"/>
            <stop offset="100%" stop-color="#141414"/>
        </linearGradient>
        <filter id="c" width="166.7%" height="220%" x="-33.3%" y="-60%" filterUnits="objectBoundingBox">
            <feOffset dy="3" in="SourceAlpha" result="shadowOffsetOuter1"/>
            <feGaussianBlur in="shadowOffsetOuter1" result="shadowBlurOuter1" stdDeviation="1.5"/>
            <feColorMatrix in="shadowBlurOuter1" result="shadowMatrixOuter1" values="0 0 0 0 0 0 0 0 0 0 0 0 0 0 0 0 0 0 0.25 0"/>
            <feMerge>
                <feMergeNode in="shadowMatrixOuter1"/>
                <feMergeNode in="SourceGraphic"/>
            </feMerge>
        </filter>
        <linearGradient id="d" x1="50%" x2="50%" y1="0%" y2="100%">
            <stop offset="0%" stop-color="#575757"/>
            <stop offset="100%" stop-color="#141414"/>
        </linearGradient>
    
        <linearGradient id="a" x1="38.293%" x2="27.461%" y1="100%" y2="11.223%">
            <stop offset="0%" stop-color="#5780F1"/>
            <stop offset="100%" stop-color="#A3BCFF"/>
        </linearGradient>
        <filter id="b" width="166.7%" height="166.7%" x="-33.3%" y="-33.3%" filterUnits="objectBoundingBox">
            <feOffset dy="2" in="SourceAlpha" result="shadowOffsetOuter1"/>
            <feGaussianBlur in="shadowOffsetOuter1" result="shadowBlurOuter1" stdDeviation="3"/>
            <feColorMatrix in="shadowBlurOuter1" result="shadowMatrixOuter1" values="0 0 0 0 0 0 0 0 0 0 0 0 0 0 0 0 0 0 0.2 0"/>
            <feMerge>
                <feMergeNode in="shadowMatrixOuter1"/>
                <feMergeNode in="SourceGraphic"/>
            </feMerge>
        </filter>
        <linearGradient id="c" x1="50%" x2="50%" y1="0%" y2="100%">
            <stop offset="0%" stop-color="#575757"/>
            <stop offset="100%" stop-color="#141414"/>
        </linearGradient>
        <linearGradient id="d" x1="50%" x2="50%" y1="0%" y2="100%">
            <stop offset="0%" stop-color="#575757"/>
            <stop offset="100%" stop-color="#141414"/>
        </linearGradient>
    
        <linearGradient id="123" x1="38.293%" x2="27.461%" y1="100%" y2="11.223%">
            <stop offset="0%" stop-color="#5780F1"/>
            <stop offset="100%" stop-color="#A3BCFF"/>
        </linearGradient>
        <path id="c" d="M.652 34.191c.424.495 1.124.603 1.95.603h17.517c2.157 0 3.91-1.54 3.91-3.432 0-.447-.096-.88-.285-1.284 1.671-.39 2.907-1.73 2.907-3.32a3.09 3.09 0 0 0-.45-1.589c1.12-.621 1.829-1.712 1.829-2.899 0-.986-.475-1.898-1.285-2.54.81-.64 1.285-1.553 1.285-2.539 0-1.893-1.753-3.432-3.913-3.432l-10.302.218c.252-3.973.024-7.761-.683-11.364-.626-1.7-1.602-2.55-2.928-2.55-2.357 0-2.434 3.804-2.684 5.054C7.087 7.277 5.238 15.712.413 17.72.289 28.37.369 33.861.652 34.19z"/>
        <filter id="b" width="143.4%" height="134.6%" x="-21.7%" y="-8.6%" filterUnits="objectBoundingBox">
            <feOffset dy="3" in="SourceAlpha" result="shadowOffsetOuter1"/>
            <feGaussianBlur in="shadowOffsetOuter1" result="shadowBlurOuter1" stdDeviation="1.5"/>
            <feColorMatrix in="shadowBlurOuter1" values="0 0 0 0 0 0 0 0 0 0 0 0 0 0 0 0 0 0 0.25 0"/>
        </filter>
        <linearGradient id="d" x1="50%" x2="50%" y1="0%" y2="100%">
            <stop offset="0%" stop-color="#575757"/>
            <stop offset="100%" stop-color="#141414"/>
        </linearGradient>
    
        <linearGradient id="1234" x1="38.293%" x2="27.461%" y1="100%" y2="11.223%">
            <stop offset="0%" stop-color="#5780F1"/>
            <stop offset="100%" stop-color="#A3BCFF"/>
        </linearGradient>
        <circle id="c" cx="17.298" cy="9.919" r="9"/>
        <filter id="b" width="166.7%" height="166.7%" x="-33.3%" y="-33.3%" filterUnits="objectBoundingBox">
            <feOffset in="SourceAlpha" result="shadowOffsetOuter1"/>
            <feGaussianBlur in="shadowOffsetOuter1" result="shadowBlurOuter1" stdDeviation="2"/>
            <feColorMatrix in="shadowBlurOuter1" values="0 0 0 0 0 0 0 0 0 0 0 0 0 0 0 0 0 0 0.25 0"/>
        </filter>
        <linearGradient id="d" x1="50%" x2="50%" y1="0%" y2="100%">
            <stop offset="0%" stop-color="#575757"/>
            <stop offset="100%" stop-color="#141414"/>
        </linearGradient>
        <linearGradient id="e" x1="50%" x2="50%" y1="0%" y2="100%">
            <stop offset="0%" stop-color="#575757"/>
            <stop offset="100%" stop-color="#141414"/>
        </linearGradient>
    
        <linearGradient id="a" x1="38.293%" x2="27.461%" y1="72.222%" y2="32.766%">
            <stop offset="0%" stop-color="#5780F1"/>
            <stop offset="100%" stop-color="#A3BCFF"/>
        </linearGradient>
    
        <linearGradient id="a" x1="38.293%" x2="27.461%" y1="100%" y2="11.223%">
            <stop offset="0%" stop-color="#5780F1"/>
            <stop offset="100%" stop-color="#A3BCFF"/>
        </linearGradient>
        <filter id="b" width="166.7%" height="166.7%" x="-33.3%" y="-33.3%" filterUnits="objectBoundingBox">
            <feOffset dy="2" in="SourceAlpha" result="shadowOffsetOuter1"/>
            <feGaussianBlur in="shadowOffsetOuter1" result="shadowBlurOuter1" stdDeviation="3"/>
            <feColorMatrix in="shadowBlurOuter1" result="shadowMatrixOuter1" values="0 0 0 0 0 0 0 0 0 0 0 0 0 0 0 0 0 0 0.2 0"/>
            <feMerge>
                <feMergeNode in="shadowMatrixOuter1"/>
                <feMergeNode in="SourceGraphic"/>
            </feMerge>
        </filter>
        <linearGradient id="c" x1="50%" x2="50%" y1="0%" y2="100%">
            <stop offset="0%" stop-color="#575757"/>
            <stop offset="100%" stop-color="#141414"/>
        </linearGradient>
    
        <circle id="b" cx="35" cy="35" r="35"/>
        <filter id="a" width="125.7%" height="125.7%" x="-12.9%" y="-8.6%" filterUnits="objectBoundingBox">
            <feOffset dy="3" in="SourceAlpha" result="shadowOffsetOuter1"/>
            <feGaussianBlur in="shadowOffsetOuter1" result="shadowBlurOuter1" stdDeviation="2.5"/>
            <feColorMatrix in="shadowBlurOuter1" values="0 0 0 0 0 0 0 0 0 0 0 0 0 0 0 0 0 0 0.15 0"/>
        </filter>
    <linearGradient id="a" x1="50%" x2="50%" y1="0%" y2="100%"><stop offset="0%" stop-color="#575757"/><stop offset="100%" stop-color="#141414"/></linearGradient><filter id="b" width="136.4%" height="156.1%" x="-18.2%" y="-28.1%" filterUnits="objectBoundingBox"><feOffset dy="3" in="SourceAlpha" result="shadowOffsetOuter1"/><feGaussianBlur in="shadowOffsetOuter1" result="shadowBlurOuter1" stdDeviation="2.5"/><feColorMatrix in="shadowBlurOuter1" result="shadowMatrixOuter1" values="0 0 0 0 0 0 0 0 0 0 0 0 0 0 0 0 0 0 0.25 0"/><feMerge><feMergeNode in="shadowMatrixOuter1"/><feMergeNode in="SourceGraphic"/></feMerge></filter><linearGradient id="c" x1="50%" x2="50%" y1="0%" y2="100%"><stop offset="0%" stop-color="#575757"/><stop offset="100%" stop-color="#141414"/></linearGradient><linearGradient id="d" x1="78.101%" x2="78.101%" y1="21.793%" y2="90.889%"><stop offset="0%" stop-color="#5780F1"/><stop offset="100%" stop-color="#A3BCFF"/></linearGradient><linearGradient id="e" x1="0%" x2="65.568%" y1="91.306%" y2="27.86%"><stop offset="0%" stop-color="#FFF"/><stop offset="100%" stop-color="#212121"/></linearGradient>
        <linearGradient id="a" x1="47.014%" x2="44.251%" y1="100%" y2="11.223%">
            <stop offset="0%" stop-color="#5780F1"/>
            <stop offset="100%" stop-color="#A3BCFF"/>
        </linearGradient>
        <linearGradient id="b" x1="50%" x2="50%" y1="0%" y2="100%">
            <stop offset="0%" stop-color="#575757"/>
            <stop offset="100%" stop-color="#141414"/>
        </linearGradient>
        <filter id="c" width="151.1%" height="155.8%" x="-25.5%" y="-27.9%" filterUnits="objectBoundingBox">
            <feOffset dy="3" in="SourceAlpha" result="shadowOffsetOuter1"/>
            <feGaussianBlur in="shadowOffsetOuter1" result="shadowBlurOuter1" stdDeviation="1.5"/>
            <feColorMatrix in="shadowBlurOuter1" result="shadowMatrixOuter1" values="0 0 0 0 0 0 0 0 0 0 0 0 0 0 0 0 0 0 0.25 0"/>
            <feMerge>
                <feMergeNode in="shadowMatrixOuter1"/>
                <feMergeNode in="SourceGraphic"/>
            </feMerge>
        </filter>
        <linearGradient id="d" x1="50%" x2="50%" y1="0%" y2="100%">
            <stop offset="0%" stop-color="#575757"/>
            <stop offset="100%" stop-color="#141414"/>
        </linearGradient>
    
        <filter id="a123" width="169%" height="156.8%" x="-32.4%" y="-28.4%" filterUnits="objectBoundingBox">
            <feOffset dy="2" in="SourceAlpha" result="shadowOffsetOuter1"/>
            <feGaussianBlur in="shadowOffsetOuter1" result="shadowBlurOuter1" stdDeviation="5"/>
            <feColorMatrix in="shadowBlurOuter1" result="shadowMatrixOuter1" values="0 0 0 0 0 0 0 0 0 0 0 0 0 0 0 0 0 0 0.15 0"/>
            <feMerge>
                <feMergeNode in="shadowMatrixOuter1"/>
                <feMergeNode in="SourceGraphic"/>
            </feMerge>
        </filter>
        <linearGradient id="b123" x1="43.035%" x2="36.59%" y1="100%" y2="11.223%">
            <stop offset="0%" stop-color="#5780F1"/>
            <stop offset="100%" stop-color="#A3BCFF"/>
        </linearGradient>
        <rect id="d123" width="10" height="14" x="34.545" y="58.11" rx="3"/>
        <filter id="c123" width="220%" height="185.7%" x="-60%" y="-21.4%" filterUnits="objectBoundingBox">
            <feOffset dy="3" in="SourceAlpha" result="shadowOffsetOuter1"/>
            <feGaussianBlur in="shadowOffsetOuter1" result="shadowBlurOuter1" stdDeviation="1.5"/>
            <feColorMatrix in="shadowBlurOuter1" values="0 0 0 0 0 0 0 0 0 0 0 0 0 0 0 0 0 0 0.25 0"/>
        </filter>
        <rect id="f123" width="10" height="26" x="47.43" y="46.11" rx="3"/>
        <filter id="e123" width="220%" height="146.2%" x="-60%" y="-11.5%" filterUnits="objectBoundingBox">
            <feOffset dy="3" in="SourceAlpha" result="shadowOffsetOuter1"/>
            <feGaussianBlur in="shadowOffsetOuter1" result="shadowBlurOuter1" stdDeviation="1.5"/>
            <feColorMatrix in="shadowBlurOuter1" values="0 0 0 0 0 0 0 0 0 0 0 0 0 0 0 0 0 0 0.25 0"/>
        </filter>
        <rect id="h123" width="10" height="38.524" x="60.314" y="33.585" rx="3"/>
        <filter id="g123" width="220%" height="131.1%" x="-60%" y="-7.8%" filterUnits="objectBoundingBox">
            <feOffset dy="3" in="SourceAlpha" result="shadowOffsetOuter1"/>
            <feGaussianBlur in="shadowOffsetOuter1" result="shadowBlurOuter1" stdDeviation="1.5"/>
            <feColorMatrix in="shadowBlurOuter1" values="0 0 0 0 0 0 0 0 0 0 0 0 0 0 0 0 0 0 0.25 0"/>
        </filter>
        <linearGradient id="i123" x1="6.22%" x2="29.485%" y1="-10.345%" y2="-10.345%">
            <stop offset="0%" stop-color="#FFF" stop-opacity="0"/>
            <stop offset="100%" stop-color="#FFF"/>
        </linearGradient>
        <linearGradient id="j123" x1="50%" x2="50%" y1="0%" y2="100%">
            <stop offset="0%" stop-color="#575757"/>
            <stop offset="100%" stop-color="#141414"/>
        </linearGradient>
    
        <linearGradient id="a" x1="38.293%" x2="27.461%" y1="93.112%" y2="16.564%">
            <stop offset="0%" stop-color="#5780F1"/>
            <stop offset="100%" stop-color="#A3BCFF"/>
        </linearGradient>
        <linearGradient id="b" x1="50%" x2="50%" y1="0%" y2="100%">
            <stop offset="0%" stop-color="#575757"/>
            <stop offset="100%" stop-color="#141414"/>
        </linearGradient>
        <filter id="c" width="172.7%" height="170.6%" x="-36.4%" y="-35.3%" filterUnits="objectBoundingBox">
            <feOffset dy="3" in="SourceAlpha" result="shadowOffsetOuter1"/>
            <feGaussianBlur in="shadowOffsetOuter1" result="shadowBlurOuter1" stdDeviation="1.5"/>
            <feColorMatrix in="shadowBlurOuter1" result="shadowMatrixOuter1" values="0 0 0 0 0 0 0 0 0 0 0 0 0 0 0 0 0 0 0.25 0"/>
            <feMerge>
                <feMergeNode in="shadowMatrixOuter1"/>
                <feMergeNode in="SourceGraphic"/>
            </feMerge>
        </filter>
    </defs><symbol id="icon-avia-range">
    
    <g fill="none" fill-rule="evenodd">
        <g transform="translate(7 2)">
            <use fill="#000" filter="url(#a)" xlink:href="#b"/>
            <use fill="#FFF" xlink:href="#b"/>
        </g>
        <path fill="#212121" d="M33.328 14.474c.619-.62 1.6-.638 2.218-.02.618.618.6 1.599-.02 2.218l-3.907 3.907 1.94 9.15c.11.514-.05 1.05-.421 1.421l-.779.779-4.09-8-4.188 4.189.453 2.36a.777.777 0 0 1-.213.697l-.826.825-1.91-3.585L18 26.505l.825-.826a.777.777 0 0 1 .697-.213l2.36.453 11.446-11.445zM18.07 17.641l.8-.8c.372-.372.906-.53 1.42-.422l7.6 1.607-3.061 3.062-6.759-3.447z"/>
    </g>
</symbol><symbol id="icon-big-cookie-time">
    
    <g fill="none" fill-rule="evenodd">
        <circle cx="35" cy="35" r="35" fill="url(#21345)"/>
        <path fill="#D8D8D8" stroke="#212121" stroke-linecap="round" stroke-linejoin="round" stroke-width="4" d="M34.157 21.417v-4.18"/>
        <path fill="#D8D8D8" stroke="#212121" stroke-linecap="round" stroke-linejoin="round" stroke-width="5" d="M47.004 25.572l2.353-2.507"/>
        <path fill="#D8D8D8" stroke="#212121" stroke-linecap="round" stroke-linejoin="round" stroke-width="4" d="M30.65 16.488h6.589"/>
        <path fill="#FFF" d="M53 38.27C53 48.063 44.94 56 35 56s-18-7.937-18-17.73c0-9.792 8.06-17.73 18-17.73s18 7.938 18 17.73z"/>
        <path stroke="#212121" stroke-linecap="round" stroke-linejoin="round" stroke-width="3.5" d="M36.993 36.434l6.82-7.219"/>
        <path fill="url(#b)" d="M22.765 23.565a4.5 4.5 0 1 1-9 0 4.5 4.5 0 0 1 9 0" transform="translate(17 15)"/>
    </g>
</symbol><symbol id="icon-burger">
    <rect width="27" height="2" x="0" y="0"/>
    <rect width="27" height="2" x="0" y="7"/>
    <rect width="27" height="2" x="0" y="14"/>
</symbol><symbol id="icon-cards">
    
    <g fill="none" fill-rule="evenodd">
        <circle cx="35" cy="35" r="35" fill="url(#a-a)"/>
        <path d="M11 11h48v48H11z"/>
        <path fill="url(#b)" fill-rule="nonzero" d="M2.823 0h27.414c1.465 0 2.652 1.057 2.652 2.362v15.746c0 1.304-1.187 2.362-2.652 2.362H2.823C1.358 20.47.17 19.412.17 18.108V2.362C.17 1.057 1.358 0 2.823 0z" transform="translate(13 20)"/>s
        <path stroke="#FFF" stroke-width="2.394" d="M13 25.905h32.72"/>
        <g filter="url(#c)" transform="translate(20.205 31.333)">
            <path stroke="#53AAF7" stroke-linecap="round" stroke-linejoin="round" stroke-width="2.104" d="M9.939 2.716h7.703"/>
            <g transform="translate(.672 1.299)">
                <rect width="33.662" height="17.714" fill="#FFF" rx="1"/>
                <circle cx="16.623" cy="8.724" r="4" fill="url(#d)"/>
                <path fill="url(#d)" d="M27.419 10.794a1.5 1.5 0 1 1 0-3 1.5 1.5 0 0 1 0 3zm-20.951 0a1.5 1.5 0 1 1 0-3 1.5 1.5 0 0 1 0 3z"/>
            </g>
        </g>
    </g>
</symbol><symbol id="icon-clients-help">
    
    <g fill="none" fill-rule="evenodd">
        <circle cx="35" cy="35" r="35" fill="url(#a)"/>
        <g filter="url(#b)" transform="translate(11 11)">
            <path fill="#FFF" d="M43 24c0 10.493-8.507 18.999-19 18.999s-19-8.506-19-19C5 13.506 13.507 5 24 5s19 8.506 19 19z"/>
            <path fill="url(#c)" d="M21.335 4.848a2.299 2.299 0 1 1-4.6 0 2.3 2.3 0 1 1 4.6 0m0 28.373a2.299 2.299 0 1 1-4.6 0 2.3 2.3 0 1 1 4.6 0m11.828-11.886a2.3 2.3 0 1 1 0-4.6 2.3 2.3 0 0 1 0 4.6zm-25.957-2.3a2.299 2.299 0 1 1-4.6 0 2.3 2.3 0 1 1 4.6 0" transform="translate(5 5)"/>
            <path stroke="url(#d)" stroke-linecap="round" stroke-linejoin="round" stroke-width="3.5" d="M14.186 16.646l5.523 4.71 8.948-9.053" transform="translate(5 5)"/>
        </g>
    </g>
</symbol><symbol id="icon-close"><path d="M1 1l14 14m0-14L1 15" fill="none" fill-rule="evenodd" stroke-width="2"/></symbol><symbol id="icon-confirmation">
    
    <g fill="none" fill-rule="evenodd">
        <circle cx="35" cy="35" r="35" fill="url(#123)"/>
        <path d="M11 11h48v48H11z"/>
        <g transform="translate(15 15)">
            <g transform="translate(11.846)">
                <use fill="#000" filter="url(#b)" xlink:href="#c"/>
                <use fill="#FFF" xlink:href="#c"/>
            </g>
            <rect width="13.327" height="22.387" y="14.52" fill="url(#d)" rx="3.305"/>
            <path fill="#FFF" d="M5.202 34.19a2.5 2.5 0 1 1 0-4.999 2.5 2.5 0 0 1 0 5z"/>
        </g>
    </g>
</symbol><symbol id="icon-fb" viewBox="0 0 32 32">
    <g fill="none" fill-rule="nonzero">
        <path fill="#3C5193" d="M0 32h32V0H0z"/>
        <path fill="#FEFEFE" d="M26.99 21.446l.567-4.395h-4.352v-2.805c0-1.272.355-2.14 2.18-2.14h2.325V8.172C27.308 8.12 25.928 8 24.32 8c-3.357 0-5.653 2.05-5.653 5.81v3.24H14.87v4.396h3.797v11.278h4.538V21.446h3.785z"/>
    </g>
</symbol><symbol id="icon-high-income">
    
    <g fill="none" fill-rule="evenodd">
        <circle cx="35" cy="35" r="35" fill="url(#1234)"/>
        <path d="M11 11h48v48H11z"/>
        <g transform="translate(17 14)">
            <use fill="#000" filter="url(#b)" xlink:href="#c"/>
            <use fill="#FFF" xlink:href="#c"/>
        </g>
        <rect width="36.02" height="29.017" fill="url(#d)" rx="3.832" transform="translate(17 23.773)"/>
        <path fill="#53AAF7" d="M48.788 38.846a1.33 1.33 0 0 1-1.333 1.328 1.33 1.33 0 0 1-1.332-1.328 1.33 1.33 0 0 1 1.332-1.327 1.33 1.33 0 0 1 1.333 1.327"/>
        <g transform="translate(17 23.773)">
            <rect width="36.02" height="29.017" rx="3.832"/>
            <rect width="15" height="11" x="23" y="9.195" fill="url(#e)" rx="3"/>
            <path fill="#FFF" d="M28.337 17.464a2.5 2.5 0 1 1 0-5 2.5 2.5 0 0 1 0 5z"/>
        </g>
    </g>
</symbol><symbol id="icon-list-tick" viewBox="0 0 19 14">
    
    <path fill="none" fill-rule="evenodd" stroke="url(#a)" stroke-linecap="round" stroke-linejoin="round" stroke-width="4" d="M644 512.706l5.192 5.294L659 508" transform="translate(-642 -506)"/>
</symbol><symbol id="icon-login"><g fill="none" fill-rule="evenodd" stroke="#FFF" stroke-width="2"><path d="M1 6.031V2a1 1 0 0 1 1-1h16a1 1 0 0 1 1 1v16a1 1 0 0 1-1 1H2a1 1 0 0 1-1-1v-4.01m-1-3.944h14.006"/><path d="M9.98 5.932l4.137 3.993-4.138 4.192"/></g></symbol><symbol id="icon-online-help">
    
    <g fill="none" fill-rule="evenodd">
        <circle cx="35" cy="35" r="35" fill="url(#a)"/>
        <g filter="url(#b)" transform="translate(11 11)">
            <path fill="#FFF" d="M10.35 36.194H8.844A3.844 3.844 0 0 1 5 32.349V14.844A3.844 3.844 0 0 1 8.844 11h28.447a3.844 3.844 0 0 1 3.844 3.844V32.35a3.844 3.844 0 0 1-3.844 3.845H17.52l-6.252 5.175a.56.56 0 0 1-.918-.432v-4.743z"/>
            <path stroke="url(#c)" stroke-linecap="round" stroke-linejoin="round" stroke-width="3.7" d="M11.532 13.302l4.914 4.806L25.37 8.66" transform="translate(5 11)"/>
        </g>
    </g>
</symbol><symbol id="icon-slider-arrow">
    
    <g fill="none" fill-rule="evenodd">
        <g transform="matrix(-1 0 0 1 75 2)">
            <use fill="#FFF" xlink:href="#b"/>
        </g>
        <path stroke="#212121" stroke-linecap="round" stroke-linejoin="round" stroke-width="4" d="M36.5 24.167L48.167 37.39 36.5 51"/>
    </g>
</symbol><symbol id="icon-testimonials"><g fill="none" fill-rule="evenodd"><path fill="url(#a)" fill-rule="nonzero" d="M34.608.132L.798 15.87c-1.03.474-1.07 1.923-.077 2.463l5.902 3.2c-.013.013 0 .013 0 .027l5.224 13.17a1.304 1.304 0 0 0 2.22.356l5.419-6.559 10.212 5.545c.797.452 1.881-.029 2.024-1.001l4.832-31.478C36.718.488 35.59-.331 34.608.132z" transform="scale(-1 1) rotate(30 -34.153 -229.147)"/><path fill="#FFF" stroke="#FFF" stroke-linecap="round" stroke-linejoin="round" stroke-width="2" d="M101.796 8.054L121.317 11l.88 6.729-3.211-3.366z"/><g filter="url(#b)" transform="translate(5 25.294)"><path fill="#FFF" d="M16 43.755v11.029a1.5 1.5 0 0 0 2.372 1.22l15.758-11.25h31.816c12.118 0 22.035-10.004 22.035-22.24 0-12.231-9.917-22.24-22.035-22.24H22.52C10.398.274.481 10.283.481 22.514c0 9.947 6.554 18.42 15.519 21.241z"/><path fill="url(#c)" d="M29.774 23.015c0 3.035-2.439 5.503-5.46 5.503-3.014 0-5.458-2.468-5.458-5.503 0-3.036 2.444-5.497 5.459-5.497 3.02 0 5.459 2.46 5.459 5.497m18.83-.018c0 3.036-2.439 5.503-5.46 5.503-3.014 0-5.458-2.467-5.458-5.503S40.13 17.5 43.145 17.5c3.02 0 5.459 2.461 5.459 5.497m20.346 0c0 3.036-2.438 5.503-5.459 5.503-3.014 0-5.458-2.467-5.458-5.503S60.477 17.5 63.49 17.5c3.021 0 5.46 2.461 5.46 5.497" transform="matrix(-1 0 0 1 88 0)"/></g><path fill="url(#d)" d="M111.137 90.741c-.208-4.84 3.876-8.86 12.253-12.058a2 2 0 0 0 1.254-2.226l-.694-3.815a2 2 0 0 0-2.254-1.621c-1.364.197-2.433.378-3.207.542-19.185 4.081-31.57 19.252-29.199 37.37 2.68 13.72 13.81 18.989 23.908 17.597 10.203-1.59 17.21-10.737 15.562-20.578-1.34-8.749-8.863-14.912-17.623-15.21z" transform="rotate(180 111.5 91.873)"/><path fill="url(#d)" d="M65.137 90.741c-.208-4.84 3.876-8.86 12.253-12.058a2 2 0 0 0 1.254-2.226l-.694-3.815a2 2 0 0 0-2.254-1.621c-1.364.197-2.433.378-3.207.542-19.185 4.081-31.57 19.252-29.199 37.37 2.68 13.72 13.81 18.989 23.908 17.597 10.203-1.59 17.21-10.737 15.562-20.578-1.34-8.749-8.863-14.912-17.623-15.21z" transform="rotate(180 65.5 91.873)"/><path stroke="url(#e)" stroke-dasharray="0,10" stroke-linecap="round" stroke-linejoin="round" stroke-width="4" d="M157.034 47.289c-17.707 6.763-28.291 17.321-31.752 31.673" transform="scale(-1 1) rotate(-13 -63.938 1316.993)"/></g></symbol><symbol id="icon-tourists-agency">
    
    <g fill="none" fill-rule="evenodd">
        <path d="M-7-12H98V93H-7z"/>
        <path fill="url(#a)" d="M40.914 23.898c-.005-1.49-.009-2.653-.01-3.489a24.343 24.343 0 0 0-.236-3.307C39.168 6.327 28.76-1.358 17.813.202 7.62 1.653.183 10.638.258 19.891c.01 2.326 1.697 4.536 4.075 4.54 2.38.005 4.028-1.88 4.387-4.235.714-4.676 2.438-8.015 6.503-10.082 4.268-2.17 8.557-1.85 12.39 1.045 6.639 5.012 5.701 14.513-.454 18.339-1.447.899-2.96 1.746-4.545 2.364-3.055 1.192-6.18 2.21-9.279 3.29-2.791.972-5.552 2.01-8.066 3.585C1.907 40.845.21 43.783.235 47.804.278 54.326.2 63.701 0 75.931a5 5 0 0 0 5.004 5.081l30.597-.03a5 5 0 0 0 4.995-4.97l.317-52.114z"/>
        <path fill="#FFF" d="M24.498 53.889l7.02 1.02c.679.099.948.94.457 1.425l-5.089 5.011 1.19 7.064c.114.683-.596 1.204-1.202.883l-6.276-3.327-6.286 3.346c-.607.323-1.316-.197-1.198-.88l1.21-7.067-5.074-4.996c-.49-.483-.218-1.326.46-1.427l7.024-1.04 3.15-6.434a.823.823 0 0 1 1.483-.002l3.131 6.424z"/>
        <g transform="translate(34.071 54.519)">
            <rect width="53.245" height="20.045" fill="url(#b)" rx="9.957"/>
            <rect width="20.862" height="13.364" x="28.222" y="3.107" fill="#FFF" rx="6.682"/>
        </g>
        <path d="M31 3h61v61H31z"/>
        <g filter="url(#c)" transform="translate(36 8)">
            <path fill="#FFF" d="M13.491 39.276c.492.568 2.303.692 3.26.692h20.313c2.5 0 4.534-1.768 4.534-3.942 0-.514-.112-1.011-.331-1.475 1.937-.449 3.37-1.987 3.37-3.813 0-.638-.182-1.265-.52-1.826 1.297-.714 2.12-1.967 2.12-3.33 0-1.132-.552-2.18-1.49-2.918.938-.736 1.49-1.784 1.49-2.916 0-2.175-2.034-3.943-4.538-3.943l-11.945.251c.292-4.564.028-8.916-.792-13.054-.726-1.953-1.858-2.93-3.395-2.93-2.733 0-2.823 4.37-3.113 5.806-.501 2.482-2.645 12.17-8.24 14.479-.81 12.234-1.05 18.54-.723 18.919z"/>
            <rect width="15.452" height="25.716" y="16.679" fill="url(#d)" rx="5"/>
            <path fill="#FFF" d="M5.792 39.324a2.5 2.5 0 1 1 0-5 2.5 2.5 0 0 1 0 5z"/>
        </g>
    </g>
</symbol><symbol id="icon-traffic-arbitration">
    
    <g fill="none" fill-rule="evenodd">
        <path d="M-3-4h105v105H-3z"/>
        <g transform="translate(0 8)">
            <g filter="url(#a123)" transform="translate(19)">
                <path fill="url(#b123)" d="M5 0h43.3l14.18 13.565V76a5 5 0 0 1-5 5H5a5 5 0 0 1-5-5V5a5 5 0 0 1 5-5z" transform="matrix(-1 0 0 1 63.29 0)"/>
                <path fill="#7396F6" d="M.81 13.565h9.074a5 5 0 0 0 5-5V0L.81 13.565z"/>
                <use fill="#000" filter="url(#c123)" xlink:href="#d123"/>
                <use fill="#FFF" xlink:href="#d123"/>
                <use fill="#000" filter="url(#e123)" xlink:href="#f123"/>
                <use fill="#FFF" xlink:href="#f"/>
                <use fill="#000" filter="url(#g123)" xlink:href="#h123"/>
                <use fill="#FFF" xlink:href="#h123"/>
                <g stroke-linejoin="round" stroke-width="3">
                    <path stroke="url(#i123)" d="M.485 9.952c6.196-7.137 12.591-7.636 19.187-1.5 6.596 6.137 12.991 4.824 19.187-3.94" transform="rotate(-10 143.366 -40.034)"/>
                    <path stroke="#FFF" stroke-linecap="round" d="M42.666 22.832l6.143-2.599 1.994 6.447"/>
                </g>
            </g>
            <path fill="#FFF" fill-rule="nonzero" stroke="#FFF" stroke-width="2" d="M15.749 47.209h-2.224a.708.708 0 0 0-.64.72c.02.356.36.662.716.643h2.148v3.498h-2.224a.708.708 0 0 0-.64.719c.02.356.36.663.716.643h2.148v4.147c-.01.364.316.701.677.701a.707.707 0 0 0 .678-.7v-4.148h4.555c.361.01.697-.318.697-.681 0-.364-.336-.692-.697-.681h-4.555v-3.498c1.755 0 4.767.04 6.51 0 3.483-.082 6.231-3.117 6.136-6.68-.093-3.473-2.85-6.256-6.21-6.314-1.918-.033-5.104-.007-7.038-.007-.511 0-.753.388-.753.776v10.862zm7.528-10.27c2.775-.043 5.041 2.153 5.117 4.992.076 2.824-2.065 5.19-4.825 5.268-1.727.048-4.722.011-6.465.011V36.934c1.62 0 4.602.028 6.173.005z"/>
            <ellipse cx="20.826" cy="49.427" fill="url(#j123)" rx="20.826" ry="20.744"/>
            <path fill="#FFF" fill-rule="nonzero" stroke="#FFF" stroke-width="2" d="M15.749 50.209h-2.224a.708.708 0 0 0-.64.72c.02.356.36.662.716.643h2.148v3.498h-2.224a.708.708 0 0 0-.64.719c.02.356.36.663.716.643h2.148v4.147c-.01.364.316.701.677.701a.707.707 0 0 0 .678-.7v-4.148h4.555c.361.01.697-.318.697-.681 0-.364-.336-.692-.697-.681h-4.555v-3.498c1.755 0 4.767.04 6.51 0 3.483-.082 6.231-3.117 6.136-6.68-.093-3.473-2.85-6.256-6.21-6.314-1.918-.033-5.104-.007-7.038-.007-.511 0-.753.388-.753.776v10.862zm7.528-10.27c2.775-.043 5.041 2.153 5.117 4.992.076 2.824-2.065 5.19-4.825 5.268-1.727.048-4.722.011-6.465.011V39.934c1.62 0 4.602.028 6.173.005z"/>
        </g>
    </g>
</symbol><symbol id="icon-traffic-blogs">
    
    <g fill="none" fill-rule="evenodd">
        <path d="M-4-14h105V91H-4z"/>
        <path fill="url(#a)" d="M5 .24h60a5 5 0 0 1 5 5v55a5 5 0 0 1-5 5H5a5 5 0 0 1-5-5v-55a5 5 0 0 1 5-5z"/>
        <path fill="url(#b)" d="M8.519 36.308H6.162A6.162 6.162 0 0 1 0 30.146V6.162A6.162 6.162 0 0 1 6.162 0h33.676A6.162 6.162 0 0 1 46 6.162v23.984a6.162 6.162 0 0 1-6.162 6.162H16.933l-6.834 4.866a1 1 0 0 1-1.58-.814v-4.052z" transform="translate(42 37.743)"/>
        <path fill="#FFF" fill-rule="nonzero" stroke="#FFF" stroke-linecap="round" stroke-linejoin="round" d="M76 51.844c0 7.221-9.939 13.899-11 13.899-1.062 0-11-6.678-11-13.9 0-3.369 2.673-6.1 5.971-6.1 2.112 0 3.967 1.12 5.029 2.809 1.061-1.69 2.917-2.81 5.028-2.81 3.298 0 5.972 2.732 5.972 6.102z"/>
        <path stroke="#FFF" stroke-linecap="round" stroke-linejoin="round" stroke-width="3" d="M7.479 24.134h35.978"/>
        <path stroke="#FFF" stroke-linecap="round" stroke-linejoin="round" stroke-width="3" d="M7.479 32.514h24" opacity=".5"/>
        <path stroke="#FFF" stroke-linecap="round" stroke-linejoin="round" stroke-width="3" d="M7.479 40.894h18.557" opacity=".2"/>
        <path fill="#212121" d="M10.11 7.486a2.5 2.5 0 1 1-5 0 2.5 2.5 0 0 1 5 0"/>
        <path fill="#FFF" d="M17.219 7.486a2.5 2.5 0 1 1-5 0 2.5 2.5 0 0 1 5 0m7.109 0a2.5 2.5 0 1 1-5 0 2.5 2.5 0 0 1 5 0"/>
        <g filter="url(#c)" transform="translate(65 10)">
            <path fill="#FFF" d="M16.452 33.3C7.38 33.3 0 25.832 0 16.65 0 7.47 7.38 0 16.452 0c9.071 0 16.45 7.469 16.45 16.65 0 9.182-7.379 16.65-16.45 16.65z"/>
            <path stroke="#212121" stroke-linecap="round" stroke-linejoin="round" stroke-width="3" d="M23.406 21.94c-1.1 2.818-3.818 4.816-6.989 4.816-3.106 0-5.778-1.918-6.92-4.645"/>
            <path fill="#212121" d="M12.701 13.297c0 1.295-1.037 2.345-2.317 2.345-1.28 0-2.318-1.05-2.318-2.345 0-1.295 1.037-2.346 2.318-2.346 1.28 0 2.317 1.05 2.317 2.346m12.063.015c0 1.304-1.044 2.361-2.333 2.361-1.289 0-2.333-1.057-2.333-2.36 0-1.304 1.044-2.362 2.333-2.362 1.289 0 2.333 1.058 2.333 2.361"/>
        </g>
    </g>
</symbol><symbol id="icon-vk" viewBox="0 0 32 32">
    <g fill="none" fill-rule="nonzero">
        <path fill="#4C75A3" d="M0 32h32V0H0z"/>
        <path fill="#FFF" d="M22.71 16.42c-.65-.703-1.516-1.168-2.596-1.395v-.094a3.78 3.78 0 0 0 1.77-1.47c.425-.665.64-1.426.64-2.28 0-.738-.156-1.388-.465-1.953-.31-.564-.78-1.015-1.406-1.352a5.6 5.6 0 0 0-1.863-.618c-.66-.098-1.635-.147-2.92-.147H9.687v17.512h7.006c1.214 0 2.216-.11 3.003-.33a6.193 6.193 0 0 0 2.17-1.105c.555-.43.998-.976 1.327-1.635.33-.66.494-1.423.494-2.293 0-1.193-.326-2.14-.976-2.84h-.001zm-4.854-3.347c-.133.29-.376.517-.728.682-.322.15-.633.23-.935.246-.3.017-.828.026-1.58.026h-.553V10.32h.305c.784 0 1.374.007 1.77.02.395.01.74.08 1.028.204.306.134.53.35.676.647.143.3.216.59.216.872 0 .384-.066.72-.2 1.01h.001zm1.03 7.24c-.185.332-.477.585-.876.757a3.721 3.721 0 0 1-1.34.318c-.44.015-1.23.023-2.375.023h-.235v-4.386h.81c.784 0 1.41.006 1.876.018.466.012.832.07 1.1.17.438.157.766.39.986.695.22.305.33.73.33 1.27 0 .423-.093.8-.277 1.135h.001z"/>
    </g>
</symbol></svg>