<svg xmlns="http://www.w3.org/2000/svg" width="61" height="40"><path fill="#FFFEFE" fill-rule="evenodd" d="M56.344 30.039c-2.474 3.92-6.138 7-10.99 9.24l-1.26-2.52c2.706-1.12 5.062-2.846 7.07-5.18 2.006-2.332 3.196-4.712 3.57-7.14.28-1.12.42-2.192.42-3.22 0-.932-.14-1.82-.42-2.66-2.054 2.24-4.76 3.36-8.12 3.36-3.268 0-5.928-.956-7.98-2.87-2.054-1.912-3.08-4.55-3.08-7.91 0-3.172 1.072-5.762 3.22-7.77 2.146-2.006 4.9-3.01 8.26-3.01 4.572 0 7.886 1.634 9.94 4.9.932 1.4 1.68 3.128 2.24 5.18.56 2.054.84 4.2.84 6.44 0 4.854-1.238 9.24-3.71 13.16zm-46.409 9.24l-1.26-2.52c2.706-1.12 5.062-2.846 7.07-5.18 2.006-2.332 3.196-4.712 3.57-7.14.28-1.12.42-2.192.42-3.22 0-.932-.14-1.82-.42-2.66-2.054 2.24-4.76 3.36-8.12 3.36-3.268 0-5.928-.956-7.98-2.87-2.054-1.912-3.08-4.55-3.08-7.91 0-3.172 1.072-5.762 3.22-7.77 2.146-2.006 4.9-3.01 8.26-3.01 4.572 0 7.886 1.634 9.94 4.9.932 1.4 1.68 3.128 2.24 5.18.56 2.054.84 4.2.84 6.44 0 4.854-1.238 9.24-3.71 13.16-2.474 3.92-6.138 7-10.99 9.24z"/></svg>